<?xml version="1.0" encoding="utf-8"?>
<!-- Generator: Adobe Illustrator 16.0.0, SVG Export Plug-In . SVG Version: 6.00 Build 0)  -->
<!DOCTYPE svg PUBLIC "-//W3C//DTD SVG 1.1//EN" "http://www.w3.org/Graphics/SVG/1.1/DTD/svg11.dtd">
<svg version="1.1" xmlns="http://www.w3.org/2000/svg" xmlns:xlink="http://www.w3.org/1999/xlink" x="0px" y="0px" width="1280px"
	 height="800px" viewBox="0 0 1280 800" enable-background="new 0 0 1280 800" xml:space="preserve">
<g id="Layer_1" display="none">
	<rect display="inline" fill="#BEBFC1" width="1280" height="800"/>
</g>
<g id="Layer_1_copy" display="none">
	<rect display="inline" fill="#EFEFEF" width="1280" height="800"/>
</g>
<g id="Layer_1_copy_2">
	<rect fill="#706F73" width="1280" height="800"/>
</g>
<g id="conntection_arrows" display="none" opacity="0.4">
	
		<line display="inline" fill="none" stroke="#FFFFFF" stroke-miterlimit="10" stroke-dasharray="12" x1="622" y1="217" x2="562.803" y2="172.085"/>
	
		<line display="inline" fill="none" stroke="#FFFFFF" stroke-miterlimit="10" stroke-dasharray="12" x1="593" y1="288.5" x2="556" y2="288.5"/>
	
		<line display="inline" fill="none" stroke="#FFFFFF" stroke-miterlimit="10" stroke-dasharray="12" x1="629" y1="325" x2="574.957" y2="446.654"/>
	
		<line display="inline" fill="none" stroke="#FFFFFF" stroke-miterlimit="10" stroke-dasharray="12" x1="603.29" y1="244" x2="548.5" y2="217"/>
	
		<line display="inline" fill="none" stroke="#FFFFFF" stroke-miterlimit="10" stroke-dasharray="12" x1="609.846" y1="310" x2="562.803" y2="377.911"/>
	
		<line display="inline" fill="none" stroke="#FFFFFF" stroke-miterlimit="10" stroke-dasharray="12" x1="364.275" y1="476.594" x2="310.803" y2="446.085"/>
	
		<line display="inline" fill="none" stroke="#FFFFFF" stroke-miterlimit="10" stroke-dasharray="12" x1="221.753" y1="457.388" x2="188.431" y2="499.473"/>
	
		<line display="inline" fill="none" stroke="#FFFFFF" stroke-miterlimit="10" stroke-dasharray="12" x1="247.48" y1="360.969" x2="167" y2="143.596"/>
	
		<line display="inline" fill="none" stroke="#FFFFFF" stroke-miterlimit="10" stroke-dasharray="12" x1="275.682" y1="364.534" x2="370.5" y2="175.771"/>
	
		<line display="inline" fill="none" stroke="#FFFFFF" stroke-miterlimit="10" stroke-dasharray="12" x1="343.401" y1="334.939" x2="303.662" y2="384.729"/>
	
		<line display="inline" fill="none" stroke="#FFFFFF" stroke-miterlimit="10" stroke-dasharray="12" x1="600" y1="577.5" x2="563" y2="577.5"/>
	
		<line display="inline" fill="none" stroke="#FFFFFF" stroke-miterlimit="10" stroke-dasharray="12" x1="636" y1="540.738" x2="591.29" y2="455.834"/>
	
		<line display="inline" fill="none" stroke="#FFFFFF" stroke-miterlimit="10" stroke-dasharray="12" x1="610.29" y1="621.738" x2="555.5" y2="648.738"/>
	
		<line display="inline" fill="none" stroke="#FFFFFF" stroke-miterlimit="10" stroke-dasharray="12" x1="616.846" y1="555.738" x2="569.803" y2="509"/>
</g>
<g id="conntection_arrows_copy" opacity="0.4">
</g>
<g id="fashionthing">
	<rect x="44.5" y="509.5" fill="none" stroke="#9ED7D1" stroke-width="5" stroke-miterlimit="10" width="189" height="93"/>
	<text transform="matrix(1 0 0 1 63.9048 552.0986)"><tspan x="0" y="0" fill="#FFFFFF" font-family="'Avenir-Book'" font-size="23.1049">merchandising</tspan><tspan x="18.415" y="27.726" fill="#FFFFFF" font-family="'Avenir-Book'" font-size="23.1049">application</tspan></text>
</g>
<g id="minx">
	<rect x="342.5" y="269.5" fill="none" stroke="#9ED7D1" stroke-width="5" stroke-miterlimit="10" width="188" height="95"/>
	<text transform="matrix(1 0 0 1 403.1348 311.5317)"><tspan x="0" y="0" fill="#FFFFFF" font-family="'Avenir-Book'" font-size="23.1049">styling</tspan><tspan x="-23.751" y="27.726" fill="#FFFFFF" font-family="'Avenir-Book'" font-size="23.1049">application</tspan></text>
</g>
<g id="spectre">
	<rect x="358.5" y="442.5" fill="none" stroke="#9ED7D1" stroke-width="5" stroke-miterlimit="10" width="188" height="96"/>
	<text transform="matrix(1 0 0 1 374.2485 484.2686)"><tspan x="0" y="0" fill="#FFFFFF" font-family="'Avenir-Book'" font-size="23.1049">warehouse/ops</tspan><tspan x="21.638" y="27.726" fill="#FFFFFF" font-family="'Avenir-Book'" font-size="23.1049">application</tspan></text>
</g>
<g id="astrocity">
	<rect x="169.5" y="620.5" fill="none" stroke="#9ED7D1" stroke-width="5" stroke-miterlimit="10" width="151" height="76"/>
	<text transform="matrix(1 0 0 1 199.3926 653.708)"><tspan x="0" y="0" fill="#FFFFFF" font-family="'Avenir-Book'" font-size="18.5497">admin user</tspan><tspan x="-3.96" y="22.26" fill="#FFFFFF" font-family="'Avenir-Book'" font-size="18.5497">managemnt</tspan></text>
</g>
<g id="trigger">
	<rect x="377.5" y="622.5" fill="none" stroke="#9ED7D1" stroke-width="5" stroke-miterlimit="10" width="146" height="75"/>
	<text transform="matrix(1 0 0 1 407.9448 642.5977)"><tspan x="0" y="0" fill="#FFFFFF" font-family="'Avenir-Book'" font-size="17.9856">warehouse</tspan><tspan x="-2.985" y="21.583" fill="#FFFFFF" font-family="'Avenir-Book'" font-size="17.9856">dashboard/</tspan><tspan x="12.851" y="43.165" fill="#FFFFFF" font-family="'Avenir-Book'" font-size="17.9856">insights</tspan></text>
</g>
<g id="kingmob">
	<rect x="342.5" y="94.5" fill="none" stroke="#9ED7D1" stroke-width="5" stroke-miterlimit="10" width="188" height="93"/>
	<text transform="matrix(1 0 0 1 350.063 135.4941)"><tspan x="0" y="0" fill="#FFFFFF" font-family="'Avenir-Book'" font-size="23.1049">customer service</tspan><tspan x="29.32" y="27.726" fill="#FFFFFF" font-family="'Avenir-Book'" font-size="23.1049">application</tspan></text>
</g>
<g id="voodoo">
	<path fill="none" stroke="#F2E230" stroke-width="5" stroke-miterlimit="10" d="M205.737,320.486
		c0,36.742-29.786,66.53-66.526,66.53c-36.746,0-66.531-29.788-66.531-66.53c0-36.742,29.785-66.527,66.531-66.527
		C175.951,253.959,205.737,283.744,205.737,320.486z"/>
	<text transform="matrix(1 0 0 1 106.8872 312.0474)"><tspan x="0" y="0" fill="#FFFFFF" font-family="'Avenir-Book'" font-size="23.1049">styling</tspan><tspan x="-16.035" y="27.726" fill="#FFFFFF" font-family="'Avenir-Book'" font-size="23.1049">algorithm</tspan></text>
</g>
<g id="gregory_1_">
	<circle fill="none" stroke="#F2E230" stroke-width="5" stroke-miterlimit="10" cx="260.68" cy="237.524" r="45.293"/>
	<text transform="matrix(1 0 0 1 237.4688 228.0356)"><tspan x="0" y="0" fill="#FFFFFF" font-family="'Avenir-Book'" font-size="11.5831">customer</tspan><tspan x="-15.776" y="13.9" fill="#FFFFFF" font-family="'Avenir-Book'" font-size="11.5831">communication</tspan><tspan x="6.11" y="27.799" fill="#FFFFFF" font-family="'Avenir-Book'" font-size="11.5831">service</tspan></text>
</g>
<g id="enigma">
	<text transform="matrix(1 0 0 1 717.293 193.3931)"><tspan x="0" y="0" fill="#FFFFFF" font-family="'Avenir-Book'" font-size="14">monitoring/</tspan><tspan x="-4.418" y="16.8" fill="#FFFFFF" font-family="'Avenir-Book'" font-size="14">configuration</tspan></text>
	<text transform="matrix(1 0 0 1 812.001 272.2661)"><tspan x="0" y="0" fill="#FFFFFF" font-family="'Avenir-Book'" font-size="18">shared</tspan><tspan x="-4.5" y="21.6" fill="#FFFFFF" font-family="'Avenir-Book'" font-size="18">services</tspan></text>
	<path fill="none" stroke="#F2E230" stroke-width="5" stroke-miterlimit="10" d="M804.453,197.892
		c0,27.743-22.489,50.235-50.234,50.235c-27.748,0-50.238-22.492-50.238-50.235c0-27.745,22.49-50.237,50.238-50.237
		C781.964,147.655,804.453,170.147,804.453,197.892z"/>
</g>
<g id="rescue_brain">
	<path fill="none" stroke="#F2E230" stroke-width="5" stroke-miterlimit="10" d="M805.118,363.501
		c0,27.743-22.489,50.235-50.234,50.235c-27.749,0-50.237-22.492-50.237-50.235c0-27.745,22.488-50.237,50.237-50.237
		C782.629,313.264,805.118,335.756,805.118,363.501z"/>
	<text transform="matrix(1 0 0 1 718.1895 353.8057)"><tspan x="0" y="0" fill="#FFFFFF" font-family="'Avenir-Book'" font-size="14">background</tspan><tspan x="16.353" y="16.8" fill="#FFFFFF" font-family="'Avenir-Book'" font-size="14">worker</tspan><tspan x="3.137" y="33.6" fill="#FFFFFF" font-family="'Avenir-Book'" font-size="14">monitoring</tspan></text>
</g>
<g id="CI">
	<text transform="matrix(1 0 0 1 896.6279 192.2764)"><tspan x="0" y="0" fill="#FFFFFF" font-family="'Avenir-Book'" font-size="14">continuous</tspan><tspan x="0.161" y="16.8" fill="#FFFFFF" font-family="'Avenir-Book'" font-size="14">integration</tspan></text>
	<path fill="none" stroke="#F2E230" stroke-width="5" stroke-miterlimit="10" d="M980.212,197.995
		c0,27.743-22.489,50.235-50.234,50.235c-27.749,0-50.237-22.492-50.237-50.235c0-27.745,22.488-50.237,50.237-50.237
		C957.723,147.758,980.212,170.25,980.212,197.995z"/>
</g>
<g id="trans">
	<text transform="matrix(1 0 0 1 896.6279 358.2764)"><tspan x="0" y="0" fill="#FFFFFF" font-family="'Avenir-Book'" font-size="14">continuous</tspan><tspan x="0.161" y="16.8" fill="#FFFFFF" font-family="'Avenir-Book'" font-size="14">integration</tspan></text>
	<path fill="none" stroke="#F2E230" stroke-width="5" stroke-miterlimit="10" d="M980.212,363.995
		c0,27.743-22.489,50.235-50.234,50.235c-27.749,0-50.237-22.492-50.237-50.235c0-27.745,22.488-50.237,50.237-50.237
		C957.723,313.758,980.212,336.25,980.212,363.995z"/>
</g>
<g id="hellblazer">
	<rect x="30.5" y="58.5" fill="none" stroke="#9ED7D1" stroke-width="5" stroke-miterlimit="10" width="226" height="94"/>
	<text transform="matrix(1 0 0 1 49.9009 112.3892)" fill="#FFFFFF" font-family="'Avenir-Book'" font-size="23.1049">www.stitchfix.com</text>
</g>
<g id="message_arrows">
	<g>
		<g>
			<line fill="none" stroke="#F2E230" stroke-miterlimit="10" x1="169.954" y1="161.379" x2="173.89" y2="165.907"/>
			
				<line fill="none" stroke="#F2E230" stroke-miterlimit="10" stroke-dasharray="9.4906,9.4906" x1="180.116" y1="173.07" x2="201.907" y2="198.141"/>
			<line fill="none" stroke="#F2E230" stroke-miterlimit="10" x1="205.02" y1="201.722" x2="208.956" y2="206.251"/>
			<g>
				<polygon fill="#F2E230" points="204.235,208.421 213.664,211.667 211.762,201.878 				"/>
			</g>
		</g>
	</g>
	
		<text transform="matrix(0.6376 0.7704 -0.7704 0.6376 179.7764 161.3433)" fill="#F2E230" font-family="'Avenir-Book'" font-size="11.5831">welcome!</text>
	<g>
		<g>
			<line fill="none" stroke="#F2E230" stroke-miterlimit="10" x1="344.381" y1="464.23" x2="341.694" y2="458.866"/>
			
				<line fill="none" stroke="#F2E230" stroke-miterlimit="10" stroke-dasharray="11.8032,11.8032" x1="336.406" y1="448.313" x2="265.028" y2="305.852"/>
			<line fill="none" stroke="#F2E230" stroke-miterlimit="10" x1="262.384" y1="300.575" x2="259.697" y2="295.211"/>
			<g>
				<polygon fill="#F2E230" points="264.808,294.282 256.482,288.795 255.892,298.749 				"/>
			</g>
		</g>
	</g>
	
		<text transform="matrix(0.4576 0.8892 -0.8892 0.4576 317.2295 389.0146)" fill="#F2E230" font-family="'Avenir-Book'" font-size="11.5831">fix shipped!</text>
	<g>
		<g>
			<line fill="none" stroke="#F2E230" stroke-miterlimit="10" x1="334.828" y1="162.841" x2="329.803" y2="166.119"/>
			
				<line fill="none" stroke="#F2E230" stroke-miterlimit="10" stroke-dasharray="12.5564,12.5564" x1="319.286" y1="172.979" x2="303.51" y2="183.269"/>
			<line fill="none" stroke="#F2E230" stroke-miterlimit="10" x1="298.252" y1="186.698" x2="293.227" y2="189.977"/>
			<g>
				<polygon fill="#F2E230" points="291.724,185.003 287.216,193.897 297.173,193.356 				"/>
			</g>
		</g>
	</g>
	
		<text transform="matrix(0.8122 -0.5834 0.5834 0.8122 298.4033 178.3687)" fill="#F2E230" font-family="'Avenir-Book'" font-size="11.5831">solved!</text>
</g>
<g id="flow_arrows">
	<g>
		<g>
			<line fill="none" stroke="#FFFFFF" stroke-width="3" stroke-miterlimit="10" x1="138.5" y1="501" x2="138.5" y2="401"/>
			<g>
				<polygon fill="#FFFFFF" points="131.034,402 145.612,402 138.323,394.712 				"/>
			</g>
		</g>
	</g>
	<g>
		<g>
			<line fill="none" stroke="#FFFFFF" stroke-width="3" stroke-miterlimit="10" x1="213" y1="329.5" x2="328" y2="329.5"/>
			<g>
				<polygon fill="#FFFFFF" points="327,322.405 327,336.983 334.287,329.694 				"/>
			</g>
		</g>
	</g>
	<g>
		<g>
			<line fill="none" stroke="#FFFFFF" stroke-width="3" stroke-miterlimit="10" x1="138.5" y1="162" x2="138.5" y2="239"/>
			<g>
				<polygon fill="#FFFFFF" points="145.612,238 131.034,238 138.323,245.287 				"/>
			</g>
		</g>
	</g>
	
		<text transform="matrix(-4.371139e-08 1 -1 -4.371139e-08 147.4902 182.2769)" fill="#FFFFFF" font-family="'Avenir-Book'" font-size="13.2028">clients</text>
	<g>
		<g>
			<line fill="none" stroke="#FFFFFF" stroke-width="2" stroke-miterlimit="10" x1="858" y1="593" x2="893" y2="593"/>
			<g>
				<polygon fill="#FFFFFF" points="892,591.013 892,595.872 894.429,593.442 				"/>
			</g>
		</g>
	</g>
	
		<text transform="matrix(-4.371139e-08 1 -1 -4.371139e-08 147.4902 410.9141)" fill="#FFFFFF" font-family="'Avenir-Book'" font-size="13.2028">merchandise</text>
	<text transform="matrix(1 0 0 1 214.1426 319.8271)" fill="#FFFFFF" font-family="'Avenir-Book'" font-size="13.2028">recommendations</text>
	<g display="none">
		<g display="inline">
			
				<line fill="none" stroke="#FFFFFF" stroke-width="3" stroke-miterlimit="10" x1="252.747" y1="106.188" x2="316.097" y2="135.23"/>
			<g>
				<polygon fill="#FFFFFF" points="318.246,128.197 312.171,141.448 321.833,137.859 				"/>
			</g>
		</g>
	</g>
	
		<text transform="matrix(0.909 0.4167 -0.4167 0.909 273.2998 106.4414)" display="none" fill="#FFFFFF" font-family="'Avenir-Book'" font-size="12">help!</text>
	<g>
		<g>
			<line fill="none" stroke="#F2E230" stroke-miterlimit="10" x1="245.44" y1="553.286" x2="250.82" y2="550.631"/>
			
				<line fill="none" stroke="#F2E230" stroke-miterlimit="10" stroke-dasharray="11.2078,11.2078" x1="260.871" y1="545.67" x2="336.247" y2="508.465"/>
			<line fill="none" stroke="#F2E230" stroke-miterlimit="10" x1="341.271" y1="505.984" x2="346.652" y2="503.328"/>
			<g>
				<polygon fill="#F2E230" points="343.233,498.242 348.61,509.136 351.367,501.001 				"/>
			</g>
		</g>
	</g>
	
		<text transform="matrix(0.9008 -0.4343 0.4343 0.9008 246.375 541.9521)" fill="#F2E230" font-family="'Avenir-Book'" font-size="11.5831">vendor purchase</text>
	<g>
		<g>
			<line fill="none" stroke="#FFFFFF" stroke-width="3" stroke-miterlimit="10" x1="441.5" y1="372" x2="441.5" y2="427"/>
			<g>
				<polygon fill="#FFFFFF" points="449.276,426 434.698,426 441.987,433.287 				"/>
			</g>
		</g>
	</g>
	
		<text transform="matrix(-4.371139e-08 1 -1 -4.371139e-08 451.1543 381.4199)" fill="#FFFFFF" font-family="'Avenir-Book'" font-size="13.2028">Fix™</text>
	<g>
		<g>
			<line fill="none" stroke="#F2E230" stroke-miterlimit="10" x1="347.673" y1="536.2" x2="342.292" y2="538.855"/>
			
				<line fill="none" stroke="#F2E230" stroke-miterlimit="10" stroke-dasharray="10.7501,10.7501" x1="332.653" y1="543.614" x2="260.355" y2="579.301"/>
			<line fill="none" stroke="#F2E230" stroke-miterlimit="10" x1="255.535" y1="581.68" x2="250.155" y2="584.336"/>
			<g>
				<polygon fill="#F2E230" points="253.574,589.422 248.197,578.528 245.44,586.663 				"/>
			</g>
		</g>
	</g>
	
		<text transform="matrix(0.9008 -0.4343 0.4343 0.9008 260.6797 567.6426)" fill="#F2E230" font-family="'Avenir-Book'" font-size="11.5831">vendor delivery</text>
	<g>
		<g>
			<line fill="none" stroke="#FFFFFF" stroke-width="3" stroke-miterlimit="10" x1="442.5" y1="553" x2="442.5" y2="605"/>
			<g>
				<polygon fill="#FFFFFF" points="449.729,604 435.151,604 442.44,611.287 				"/>
			</g>
		</g>
	</g>
	
		<text transform="matrix(-4.371139e-08 1 -1 -4.371139e-08 451.6089 555.665)" fill="#FFFFFF" font-family="'Avenir-Book'" font-size="13.2028">metrics</text>
</g>
<g id="legend">
	
		<text transform="matrix(1 0 0 1 26.2637 764.2695)" display="none" opacity="0.3" fill="#FFFFFF" font-family="'Avenir-Book'" font-size="10.2585">obviously an oversimplification for illustration purposes</text>
	<rect x="732" y="565" fill="none" stroke="#9ED7D1" stroke-width="2" stroke-miterlimit="10" width="51" height="28"/>
	<text transform="matrix(1 0 0 1 737.124 581.9131)" fill="#FFFFFF" font-family="'Avenir-Book'" font-size="10.5612">web app</text>
	
		<ellipse fill="none" stroke="#F2E230" stroke-width="2" stroke-miterlimit="10" cx="820.855" cy="580.192" rx="22.124" ry="20.834"/>
	<text transform="matrix(1 0 0 1 805.0537 578.0391)"><tspan x="0" y="0" fill="#FFFFFF" font-family="'Avenir-Book'" font-size="10.5612">service</tspan><tspan x="7.039" y="12.674" fill="#FFFFFF" font-family="'Avenir-Book'" font-size="10.5612">app</tspan></text>
	<text transform="matrix(1 0 0 1 857.0273 571.1543)"><tspan x="0" y="0" fill="#FFFFFF" font-family="'Avenir-Book'" font-size="10.5612">domain</tspan><tspan x="2.941" y="12.674" fill="#FFFFFF" font-family="'Avenir-Book'" font-size="10.5612">object</tspan></text>
	<g>
		<g>
			<line fill="none" stroke="#F2E230" stroke-width="2" stroke-miterlimit="10" x1="914" y1="593" x2="916" y2="593"/>
			
				<line fill="none" stroke="#F2E230" stroke-width="2" stroke-miterlimit="10" stroke-dasharray="4,4" x1="920" y1="593" x2="944" y2="593"/>
			<line fill="none" stroke="#F2E230" stroke-width="2" stroke-miterlimit="10" x1="946" y1="593" x2="948" y2="593"/>
			<g>
				<polygon fill="#F2E230" points="948,591.013 948,595.872 950.429,593.442 				"/>
			</g>
		</g>
	</g>
	<text transform="matrix(1 0 0 1 914.5908 571.1543)"><tspan x="0" y="0" fill="#F2E230" font-family="'Avenir-Book'" font-size="10.5612">AMQP</tspan><tspan x="-5.08" y="12.674" fill="#F2E230" font-family="'Avenir-Book'" font-size="10.5612">message</tspan></text>
</g>
<g id="etc" display="none">
	
		<text transform="matrix(1 0 0 1 701.7441 757.9131)" display="inline" opacity="0.5" fill="#FFFFFF" font-family="'Avenir-Book'" font-size="12">(other apps, services, and messages not shown for space)</text>
</g>
</svg>
