<?xml version="1.0" encoding="utf-8"?>
<!-- Generator: Adobe Illustrator 16.0.0, SVG Export Plug-In . SVG Version: 6.00 Build 0)  -->
<!DOCTYPE svg PUBLIC "-//W3C//DTD SVG 1.1//EN" "http://www.w3.org/Graphics/SVG/1.1/DTD/svg11.dtd">
<svg version="1.1" id="Layer_1" xmlns="http://www.w3.org/2000/svg" xmlns:xlink="http://www.w3.org/1999/xlink" x="0px" y="0px"
	 width="1000px" height="1000px" viewBox="0 0 1000 1000" enable-background="new 0 0 1000 1000" xml:space="preserve">
<g>
	<path fill="#86C6BD" d="M363.341,459.162l39.394,39.391l-39.346,39.323l-39.386-39.392L363.341,459.162z M437.15,756.794
		l-177.711,177.68c22.954,12.673,47.017,23.581,72.026,32.562l157.963-157.948L437.15,756.794z M300.947,620.638L111.539,810.062
		c15.454,19.229,32.317,37.292,50.438,54.038l191.271-191.2L300.947,620.638z M363.389,683.024L172.667,873.707
		c22.878,19.935,47.594,37.827,73.865,53.391l180.462-180.444L363.389,683.024z M489.428,536.742l-33.064-33.086
		c-2.799-2.791-2.799-7.342,0-10.133l33.064-33.082l-63.676-63.674l-52.269,52.261l44.455,44.455
		c1.352,1.337,2.116,3.176,2.116,5.07c0,1.902-0.764,3.727-2.116,5.07l-44.416,44.393l52.308,52.31L489.428,536.742z
		 M635.805,334.355l-52.263,52.277l52.263,52.255l52.277-52.285L635.805,334.355z M572.143,746.67l180.464,180.428
		c26.271-15.563,51.001-33.456,73.879-53.423l-190.714-190.65L572.143,746.67z M645.929,672.9l191.249,191.184
		c18.096-16.729,34.981-34.793,50.451-54.055l-189.47-189.392L645.929,672.9z M346.588,972.193
		c48.206,15.564,99.61,23.96,152.997,23.96c53.361,0,104.758-8.396,152.964-23.96l-152.98-152.981L346.588,972.193z
		 M698.223,376.459l189.361-189.392c-15.486-19.244-32.343-37.301-50.455-54.03L645.945,324.216L698.223,376.459z M635.805,314.074
		l190.634-190.642c-22.892-19.953-47.638-37.861-73.925-53.41L572.112,250.398L635.805,314.074z M561.972,240.255L739.62,62.641
		c-22.955-12.656-47.012-23.577-72.008-32.531L509.709,187.988L561.972,240.255z M896.465,198.465l-188.102,188.12l106.833,106.881
		c2.785,2.801,2.785,7.335-0.016,10.141L708.317,610.48l188.196,188.185c63.159-83.425,100.64-187.365,100.64-300.056
		C997.153,385.87,959.656,281.89,896.465,198.465z M652.47,24.953C604.314,9.403,552.916,1,499.585,1
		c-53.362,0-104.75,8.403-152.924,23.953l152.907,152.9L652.47,24.953z M183.957,503.599c-2.815-2.798-2.815-7.332,0-10.133
		L290.79,386.585l-188.111-188.12C39.498,281.898,2,385.886,2,498.609C2,611.3,39.482,715.24,102.64,798.665L290.798,610.48
		L183.957,503.599z M427.018,250.398L246.619,70.013c-26.279,15.549-51.013,33.451-73.904,53.418l190.626,190.642L427.018,250.398z
		 M353.208,324.216L162.022,133.022c-18.111,16.744-34.981,34.809-50.451,54.045l189.353,189.392L353.208,324.216z M489.428,187.988
		l-157.9-157.887c-24.982,8.962-49.054,19.883-72.001,32.54l177.632,177.615L489.428,187.988z M509.709,809.088l157.965,157.948
		c24.999-8.966,49.068-19.89,72.041-32.562l-177.712-177.68L509.709,809.088z M489.428,684.205l-63.598-63.597L373.522,672.9
		l63.628,63.612L489.428,684.205z M415.689,610.466l-52.3-52.34l-52.316,52.354l52.308,52.279L415.689,610.466z M199.16,498.536
		l101.771,101.818l52.326-52.339l-44.465-44.462c-1.335-1.329-2.091-3.168-2.091-5.07c0-1.894,0.756-3.727,2.091-5.071
		l44.416-44.391l-52.292-52.287L199.16,498.536z M551.876,746.653l-52.308-52.31l-52.292,52.31l52.292,52.31L551.876,746.653z
		 M799.995,498.536L698.223,396.734l-52.277,52.287l44.383,44.391c1.339,1.344,2.108,3.177,2.108,5.071
		c0,1.902-0.77,3.741-2.108,5.07l-44.461,44.462l52.292,52.339L799.995,498.536z M311.057,386.602l52.284,52.285l52.271-52.255
		l-52.271-52.277L311.057,386.602z M688.034,610.48l-52.308-52.354l-52.262,52.324l52.308,52.31L688.034,610.48z M625.631,672.9
		l-52.308-52.292l-63.614,63.597l52.293,52.308L625.631,672.9z M675.126,498.483l-39.321-39.321l-39.418,39.391l39.34,39.323
		L675.126,498.483z M563.181,610.466l-63.613-63.598l-63.604,63.598l63.604,63.611L563.181,610.466z M625.584,548.016l-44.4-44.393
		c-1.337-1.344-2.093-3.168-2.093-5.07c0-1.894,0.756-3.733,2.093-5.07l44.479-44.455l-52.262-52.261l-63.692,63.669l33.081,33.079
		c1.337,1.344,2.108,3.168,2.108,5.079c0,1.902-0.771,3.719-2.108,5.062l-33.081,33.086l63.614,63.583L625.584,548.016z
		 M499.568,526.585l28.018-27.992l-28.018-28.018l-28,28.018L499.568,526.585z M499.568,322.934l-63.667,63.698l63.667,63.662
		l63.707-63.662L499.568,322.934z M373.483,324.216l52.269,52.275l63.676-63.674l-52.269-52.279L373.483,324.216z M447.293,250.398
		l52.275,52.277l52.263-52.277l-52.263-52.277L447.293,250.398z M509.709,312.817l63.692,63.674l52.262-52.275l-63.692-63.677
		L509.709,312.817z"/>
	<path fill="#FFFFFF" d="M887.629,810.029c3.005-3.739,5.977-7.515,8.885-11.364L708.317,610.48l106.863-106.874
		c2.801-2.806,2.801-7.34,0.016-10.141L708.363,386.585l188.102-188.12c-2.924-3.851-5.88-7.647-8.881-11.398L698.223,376.459
		l-52.277-52.243l191.184-191.179c-3.522-3.246-7.074-6.453-10.69-9.605L635.805,314.074l-63.692-63.676L752.514,70.021
		c-4.248-2.522-8.555-4.977-12.894-7.381L561.972,240.255l-52.263-52.267L667.612,30.109c-5.001-1.816-10.049-3.52-15.143-5.156
		l-152.901,152.9l-152.907-152.9c-5.07,1.637-10.127,3.34-15.133,5.148l157.9,157.887l-52.269,52.267L259.526,62.641
		c-4.34,2.404-8.64,4.858-12.908,7.373l180.399,180.385l-63.677,63.676L172.715,123.432c-3.616,3.144-7.17,6.336-10.692,9.59
		l191.186,191.194l-52.284,52.243L111.571,187.067c-3.021,3.759-5.992,7.547-8.893,11.398l188.111,188.12L183.957,493.466
		c-2.815,2.801-2.815,7.335,0,10.133L290.798,610.48L102.64,798.665c2.909,3.85,5.88,7.625,8.899,11.397l189.408-189.425
		l52.301,52.263l-191.271,191.2c3.519,3.254,7.083,6.463,10.689,9.606l190.723-190.683l63.604,63.629L246.531,927.098
		c4.261,2.516,8.569,4.974,12.908,7.376l177.711-177.68l52.277,52.294L331.465,967.036c5.007,1.794,10.045,3.52,15.124,5.157
		l152.98-152.981l152.98,152.981c5.078-1.638,10.108-3.363,15.125-5.157L509.709,809.088l52.293-52.294l177.712,177.68
		c4.322-2.402,8.632-4.86,12.893-7.376L572.143,746.67l63.629-63.646l190.714,190.65c3.617-3.144,7.169-6.337,10.691-9.591
		L645.929,672.9l52.23-52.263L887.629,810.029z M698.223,396.734l101.772,101.802L698.159,600.354l-52.292-52.339l44.461-44.462
		c1.339-1.329,2.108-3.168,2.108-5.07c0-1.894-0.77-3.727-2.108-5.071l-44.383-44.391L698.223,396.734z M417.938,503.623
		c1.352-1.344,2.116-3.168,2.116-5.07c0-1.894-0.764-3.733-2.116-5.07l-44.455-44.455l52.269-52.261l63.676,63.674l-33.064,33.082
		c-2.799,2.791-2.799,7.342,0,10.133l33.064,33.086l-63.598,63.583l-52.308-52.31L417.938,503.623z M363.389,537.875l-39.386-39.392
		l39.337-39.321l39.394,39.391L363.389,537.875z M435.901,386.632l63.667-63.698l63.707,63.698l-63.707,63.662L435.901,386.632z
		 M527.586,498.593l-28.018,27.992l-28-27.992l28-28.018L527.586,498.593z M499.568,546.868l63.613,63.598l-63.613,63.611
		l-63.604-63.611L499.568,546.868z M509.709,536.742l33.081-33.086c1.337-1.344,2.108-3.16,2.108-5.062
		c0-1.91-0.771-3.735-2.108-5.079l-33.081-33.079l63.692-63.669l52.262,52.261l-44.479,44.455c-1.337,1.337-2.093,3.176-2.093,5.07
		c0,1.902,0.756,3.727,2.093,5.07l44.4,44.393l-52.261,52.31L509.709,536.742z M596.386,498.552l39.418-39.391l39.321,39.321
		l-39.399,39.392L596.386,498.552z M635.805,334.355l52.277,52.247l-52.277,52.285l-52.263-52.255L635.805,334.355z
		 M625.664,324.216l-52.262,52.275l-63.692-63.674l52.263-52.279L625.664,324.216z M499.568,198.121l52.263,52.277l-52.263,52.277
		l-52.275-52.277L499.568,198.121z M437.159,260.539l52.269,52.279l-63.676,63.674l-52.269-52.275L437.159,260.539z
		 M363.341,334.355l52.271,52.277l-52.271,52.255l-52.284-52.285L363.341,334.355z M300.931,600.354L199.16,498.536l101.757-101.802
		l52.292,52.287l-44.416,44.391c-1.335,1.344-2.091,3.177-2.091,5.071c0,1.902,0.756,3.741,2.091,5.07l44.465,44.462
		L300.931,600.354z M363.381,662.76l-52.308-52.279l52.316-52.354l52.3,52.34L363.381,662.76z M373.522,672.9l52.308-52.292
		l63.598,63.597l-52.277,52.308L373.522,672.9z M499.568,798.963l-52.292-52.31l52.292-52.31l52.308,52.31L499.568,798.963z
		 M562.002,736.513l-52.293-52.308l63.614-63.597l52.308,52.292L562.002,736.513z M635.772,662.76l-52.308-52.31l52.262-52.324
		l52.308,52.354L635.772,662.76z"/>
</g>
</svg>
