<?xml version="1.0" encoding="utf-8"?>
<!-- Generator: Adobe Illustrator 18.1.1, SVG Export Plug-In . SVG Version: 6.00 Build 0)  -->
<!DOCTYPE svg PUBLIC "-//W3C//DTD SVG 1.1//EN" "http://www.w3.org/Graphics/SVG/1.1/DTD/svg11.dtd">
<svg version="1.1" id="Layer_1" xmlns="http://www.w3.org/2000/svg" xmlns:xlink="http://www.w3.org/1999/xlink" x="0px" y="0px"
	 viewBox="193.9285 183.41641 704.4682 704.4682" enable-background="new 193.9285 183.41641 704.4682 704.4682"
	 xml:space="preserve">
<g>
	<path fill="#FFFFFF" d="M297.25052,286.73831c-66.33734,66.33734-103.32204,154.98312-103.32204,248.9122
		s36.3976,182.57452,103.32204,248.91205c66.33734,66.33734,154.98297,103.32208,248.91208,103.32208
		S728.7373,851.487,795.07465,784.56256c66.33734-66.33752,103.32202-154.98297,103.32202-248.91205
		s-36.39758-182.57449-103.32202-248.9122C728.7373,220.40096,640.09167,183.41644,546.1626,183.41644
		S363.58804,220.40096,297.25052,286.73831z M778.63708,303.76309c62.22809,62.22787,96.27728,144.41583,96.27728,232.47433
		s-34.04919,170.24652-96.27728,232.47455s-144.41583,96.27728-232.4743,96.27728
		c-88.05856,0-170.24649-34.04919-232.47455-96.27728s-96.2773-144.41602-96.2773-232.47455s34.04922-170.24646,96.2773-232.47433
		s144.41599-96.27747,232.47455-96.27747C634.22125,207.48563,716.99615,241.53485,778.63708,303.76309z"/>
</g>
<path fill="#FFFFFF" d="M546.1532,658.62805L344.8197,457.29453c-4.75049-4.75098-12.47998-4.75098-17.23047,0
	c-2.30225,2.30273-3.56982,5.3623-3.56982,8.61621c0,3.25293,1.26758,6.3125,3.56982,8.61523l209.94824,209.94827
	c2.30176,2.30176,5.36133,3.56934,8.61523,3.56934c3.25439,0,6.31396-1.26758,8.61572-3.56934l209.96729-209.94827
	c2.30273-2.30273,3.57031-5.3623,3.57031-8.61523c0-3.25391-1.26758-6.31348-3.57031-8.61621
	c-4.75-4.75098-12.48047-4.75098-17.23047,0L546.1532,658.62805z"/>
</svg>
