<?xml version="1.0" encoding="utf-8"?>
<!-- Generator: Adobe Illustrator 16.0.0, SVG Export Plug-In . SVG Version: 6.00 Build 0)  -->
<!DOCTYPE svg PUBLIC "-//W3C//DTD SVG 1.1//EN" "http://www.w3.org/Graphics/SVG/1.1/DTD/svg11.dtd">
<svg version="1.1" id="Layer_1" xmlns="http://www.w3.org/2000/svg" xmlns:xlink="http://www.w3.org/1999/xlink" x="0px" y="0px"
	 width="687px" height="143px" viewBox="0 0 687 143" enable-background="new 0 0 687 143" xml:space="preserve">
<g>
	<g>
		<path fill="#FFFFFF" d="M54.202,55.931c0,12.497-9.662,21.568-22.977,21.568c-8.705,0-15.773-3.072-22.212-9.671l-2.386,9.34
			H2.486V52.792h3.896l0.041,0.093C12.329,66.3,20.861,73.104,31.78,73.104c8.761,0,13.785-5.137,13.785-14.088
			c0-10.05-6.052-12.69-18.902-15.958C14.056,39.875,2.734,35.916,2.734,22.593c0-11.921,9.224-20.249,22.425-20.249
			c7.275,0,13.943,2.882,18.802,8.123l2.166-7.793h4.137v23.049h-3.911l-0.038-0.104c-4.28-12.24-11.988-18.982-21.706-18.982
			c-8.042,0-13.234,5.312-13.234,13.531c0,10.034,6.602,12.518,17.472,15.413l0.734,0.197
			C42.791,39.313,54.202,42.366,54.202,55.931z M69.966,28.489h3.716l0.141-1c2.187-15.616,2.638-18.868,9.771-18.868h12.79v62.38
			H84.529v4.736h33.222v-4.736h-11.848V8.621h12.787c7.129,0,7.584,3.249,9.768,18.862l0.142,1.006h3.718V3.889H69.966V28.489z
			 M152.194,8.621h11.404v62.38h-11.404v4.736h32.326v-4.736h-11.401V8.621h11.401V3.889h-32.326V8.621z M204.405,28.489h3.717
			l0.143-1.006c2.184-15.613,2.639-18.862,9.766-18.862h12.788v62.38h-11.84v4.736h33.205v-4.736h-11.841V8.621h12.79
			c7.132,0,7.586,3.254,9.764,18.885l0.138,0.983h3.724V3.889h-62.353V28.489z M335.009,48.065
			c-2.255,15.205-10.768,23.931-23.353,23.931c-15.11,0-24.498-12.547-24.498-32.737c0-19.212,9.183-31.626,23.388-31.626
			c12.114,0,19.521,6.602,24.025,21.404l0.035,0.111h4.028V2.569h-4.7l-2.163,8.432c-5.172-5.818-12.236-8.768-21.003-8.768
			c-19.265,0-33.794,16.204-33.794,37.69c0,11.023,3.258,20.464,9.42,27.298c5.977,6.629,14.432,10.277,23.82,10.277
			c16.953,0,27.634-10.438,30.069-29.39l0.025-0.178h-5.283L335.009,48.065z M402.237,8.621h10.303v27.725h-37.005V8.621h10.294
			V3.889h-31.222v4.732h11.397v62.38h-11.397v4.736h31.222v-4.736h-10.294V40.853h37.005v30.148h-10.303v4.736h31.222v-4.736H422.06
			V8.621h11.399V3.889h-31.222V8.621z M492.155,8.621h11.399v62.38h-11.399v4.736h33.537v-4.736h-12.615V40.99h12.238
			c5.035,0,5.82,1.322,7.013,11.78l0.017,0.141h3.725V24.938h-3.719l-0.022,0.136c-1.413,10.081-2.07,11.121-7.013,11.121h-12.238
			V8.621h26.809c5.538,0,7.242,2.063,9.558,17.526l0.018,0.135h4.565V3.889h-61.871V8.621z M567.178,8.621h11.407v62.38h-11.407
			v4.736h32.329v-4.736h-11.401V8.621h11.401V3.889h-32.329V8.621z M654.614,38.272l20.125-29.651h8.06V3.889h-26.372v4.732h10.689
			L650.372,34.11L634.216,8.621h9.285V3.889h-29.234v4.732h9.561l20.428,31.077l-22.077,31.304h-8.796v4.736h26.14v-4.736h-9.708
			l18.674-27.15l16.648,27.15h-9.922v4.736h29.018v-4.736h-8.713L654.614,38.272z"/>
	</g>
</g>
<g>
	<path fill="#FFFFFF" d="M5.685,107.795c0-0.324,0.278-0.602,0.604-0.602h18.595c0.324,0,0.603,0.277,0.603,0.602v0.789
		c0,0.324-0.278,0.604-0.603,0.604H7.911v12.797H22.61c0.325,0,0.603,0.279,0.603,0.604v0.789c0,0.324-0.277,0.602-0.603,0.602
		H7.911v13.727h16.972c0.324,0,0.603,0.279,0.603,0.604v0.742c0,0.324-0.278,0.602-0.603,0.602H6.288
		c-0.325,0-0.604-0.277-0.604-0.602V107.795z"/>
	<path fill="#FFFFFF" d="M33.415,107.332c0-0.371,0.325-0.604,0.696-0.604h0.788l22.258,28.982c0.047,0,0.047,0,0.047,0v-27.916
		c0-0.324,0.278-0.602,0.603-0.602h0.928c0.324,0,0.603,0.277,0.603,0.602v31.719c0,0.418-0.371,0.604-0.742,0.604h-0.603
		c-0.046,0-0.417-0.141-22.443-29.262h-0.047v28.195c0,0.324-0.278,0.602-0.603,0.602h-0.881c-0.325,0-0.604-0.277-0.604-0.602
		V107.332z"/>
	<path fill="#FFFFFF" d="M83.636,106.729c4.684,0,8.208,1.578,11.223,4.312c0.231,0.232,0.278,0.604,0.046,0.836
		c-0.231,0.277-0.51,0.557-0.742,0.787c-0.277,0.324-0.51,0.279-0.788,0c-2.597-2.41-5.981-3.895-9.784-3.895
		c-8.068,0-14.422,6.584-14.422,14.607c0,8.021,6.354,14.607,14.422,14.607c5.657,0,9.182-2.18,9.646-2.551v-8.719h-7.93
		c-0.51,0-0.603-0.186-0.603-0.602v-0.928c0-0.371,0.093-0.557,0.603-0.557h9.506c0.325,0,0.603,0.277,0.603,0.557v10.758
		c0,0.695-0.277,0.928-0.648,1.205c-0.835,0.557-5.055,2.969-11.13,2.969c-9.32,0-16.786-7.328-16.786-16.648
		C66.85,114.195,74.315,106.729,83.636,106.729z"/>
	<path fill="#FFFFFF" d="M103.622,107.795c0-0.324,0.278-0.602,0.604-0.602h1.02c0.325,0,0.604,0.277,0.604,0.602v31.256
		c0,0.371-0.325,0.602-0.649,0.602h-0.974c-0.325,0-0.604-0.277-0.604-0.602V107.795z"/>
	<path fill="#FFFFFF" d="M115.679,107.332c0-0.371,0.325-0.604,0.696-0.604h0.788l22.258,28.982c0.047,0,0.047,0,0.047,0v-27.916
		c0-0.324,0.278-0.602,0.603-0.602h0.928c0.324,0,0.603,0.277,0.603,0.602v31.719c0,0.418-0.371,0.604-0.742,0.604h-0.603
		c-0.046,0-0.417-0.141-22.443-29.262h-0.047v28.195c0,0.324-0.278,0.602-0.603,0.602h-0.881c-0.325,0-0.604-0.277-0.604-0.602
		V107.332z"/>
	<path fill="#FFFFFF" d="M151.432,107.795c0-0.324,0.278-0.602,0.604-0.602h18.595c0.324,0,0.603,0.277,0.603,0.602v0.789
		c0,0.324-0.278,0.604-0.603,0.604h-16.972v12.797h14.699c0.325,0,0.603,0.279,0.603,0.604v0.789c0,0.324-0.277,0.602-0.603,0.602
		h-14.699v13.727h16.972c0.324,0,0.603,0.279,0.603,0.604v0.742c0,0.324-0.278,0.602-0.603,0.602h-18.595
		c-0.325,0-0.604-0.277-0.604-0.602V107.795z"/>
	<path fill="#FFFFFF" d="M179.162,107.795c0-0.324,0.278-0.602,0.604-0.602h18.595c0.324,0,0.603,0.277,0.603,0.602v0.789
		c0,0.324-0.278,0.604-0.603,0.604h-16.972v12.797h14.699c0.325,0,0.603,0.279,0.603,0.604v0.789c0,0.324-0.277,0.602-0.603,0.602
		h-14.699v13.727h16.972c0.324,0,0.603,0.279,0.603,0.604v0.742c0,0.324-0.278,0.602-0.603,0.602h-18.595
		c-0.325,0-0.604-0.277-0.604-0.602V107.795z"/>
	<path fill="#FFFFFF" d="M206.893,107.795c0-0.324,0.232-0.602,0.604-0.602h11.5c5.657,0,10.341,4.266,10.341,9.924
		c0,4.684-3.246,8.439-7.651,9.691l6.771,12.01c0.231,0.371,0.139,0.834-0.325,0.834h-1.438c-0.324,0-0.51-0.139-0.649-0.416
		l-6.724-12.15c-0.603,0.047-1.112,0.047-1.716,0.047h-8.532v11.918c0,0.324-0.278,0.602-0.742,0.602h-0.834
		c-0.325,0-0.604-0.277-0.604-0.602V107.795z M218.903,125.186c4.451,0,8.208-3.479,8.208-8.068c0-4.406-3.757-7.791-8.255-7.791
		h-9.737v15.859H218.903z"/>
	<path fill="#FFFFFF" d="M237.034,107.795c0-0.324,0.278-0.602,0.604-0.602h1.02c0.325,0,0.604,0.277,0.604,0.602v31.256
		c0,0.371-0.325,0.602-0.649,0.602h-0.974c-0.325,0-0.604-0.277-0.604-0.602V107.795z"/>
	<path fill="#FFFFFF" d="M249.091,107.332c0-0.371,0.325-0.604,0.696-0.604h0.788l22.258,28.982c0.047,0,0.047,0,0.047,0v-27.916
		c0-0.324,0.278-0.602,0.603-0.602h0.928c0.324,0,0.603,0.277,0.603,0.602v31.719c0,0.418-0.371,0.604-0.742,0.604h-0.603
		c-0.046,0-0.417-0.141-22.443-29.262h-0.047v28.195c0,0.324-0.278,0.602-0.603,0.602h-0.881c-0.325,0-0.604-0.277-0.604-0.602
		V107.332z"/>
	<path fill="#FFFFFF" d="M299.312,106.729c4.684,0,8.208,1.578,11.223,4.312c0.231,0.232,0.278,0.604,0.046,0.836
		c-0.231,0.277-0.51,0.557-0.742,0.787c-0.277,0.324-0.51,0.279-0.788,0c-2.597-2.41-5.981-3.895-9.784-3.895
		c-8.068,0-14.422,6.584-14.422,14.607c0,8.021,6.354,14.607,14.422,14.607c5.657,0,9.182-2.18,9.646-2.551v-8.719h-7.93
		c-0.51,0-0.603-0.186-0.603-0.602v-0.928c0-0.371,0.093-0.557,0.603-0.557h9.506c0.325,0,0.603,0.277,0.603,0.557v10.758
		c0,0.695-0.277,0.928-0.648,1.205c-0.835,0.557-5.055,2.969-11.13,2.969c-9.32,0-16.786-7.328-16.786-16.648
		C282.525,114.195,289.991,106.729,299.312,106.729z"/>
	<path fill="#FFFFFF" d="M335.481,122.217l-0.695-0.742c-1.994-2.18-4.081-4.498-3.988-7.559c0-3.199,2.412-7.188,7.93-7.188
		c4.962,0,7.513,3.385,7.513,7.002c0,3.85-3.988,6.91-7.651,8.811l9.46,9.367c1.762-2.828,2.782-6.213,2.782-9.459
		c0-0.232-0.047-0.695-0.047-0.928s0.093-0.418,0.371-0.418h0.974c0.325,0,0.464,0.141,0.557,0.418
		c0.093,0.324,0.093,0.695,0.093,0.928c0,3.664-1.252,7.605-3.339,10.805l4.822,4.775c0.371,0.324,0.557,0.742,0.186,1.066
		l-0.741,0.695c-0.371,0.371-0.696,0.141-0.928-0.092l-4.637-4.684c-2.644,3.107-6.307,5.102-10.712,5.102
		c-5.564,0-8.811-3.941-8.811-8.486C328.619,126.762,332.189,123.979,335.481,122.217z M337.476,138.262
		c3.849,0,7.049-1.809,9.367-4.59l-10.062-10.203c-3.015,1.623-6.121,4.127-6.121,8.162
		C330.659,135.34,333.487,138.262,337.476,138.262z M344.199,113.777c0-2.596-1.854-5.24-5.61-5.24c-3.988,0-5.843,2.83-5.843,5.426
		c-0.047,2.18,1.483,4.174,3.153,5.889c0.463,0.418,0.881,0.881,1.345,1.346C340.629,119.48,344.199,117.117,344.199,113.777z"/>
	<path fill="#FFFFFF" d="M370.863,107.795c0-0.324,0.278-0.602,0.557-0.602h9.831c8.996,0,16.322,7.279,16.322,16.184
		c0,9.041-7.326,16.275-16.322,16.275h-9.831c-0.278,0-0.557-0.277-0.557-0.602V107.795z M380.88,137.658
		c8.115,0,14.375-6.166,14.375-14.281c0-8.023-6.26-14.189-14.375-14.189h-7.837v28.471H380.88z"/>
	<path fill="#FFFFFF" d="M400.264,139.096l14.282-32.273c0.093-0.186,0.324-0.324,0.557-0.324h0.139
		c0.232,0,0.464,0.045,0.604,0.324l14.143,32.273c0.093,0.279,0.093,0.557-0.417,0.557h-1.206c-0.324,0-0.556-0.23-0.648-0.416
		l-3.757-8.533h-17.714l-3.709,8.533c-0.093,0.186-0.325,0.416-0.649,0.416h-1.299C400.264,139.652,400.124,139.467,400.264,139.096
		z M423.171,128.895l-7.93-18.688h-0.093l-8.068,18.688H423.171z"/>
	<path fill="#FFFFFF" d="M438.29,109.188h-8.857c-0.464,0-0.603-0.279-0.603-0.697v-0.695c0-0.371,0.278-0.602,0.603-0.602h19.939
		c0.371,0,0.604,0.277,0.604,0.602v0.789c0,0.324-0.232,0.604-0.604,0.604h-8.903v29.863c0,0.324-0.277,0.602-0.741,0.602h-0.835
		c-0.324,0-0.603-0.277-0.603-0.602V109.188z"/>
	<path fill="#FFFFFF" d="M448.77,139.096l14.282-32.273c0.093-0.186,0.324-0.324,0.557-0.324h0.139c0.232,0,0.464,0.045,0.604,0.324
		l14.143,32.273c0.093,0.279,0.093,0.557-0.417,0.557h-1.206c-0.324,0-0.556-0.23-0.648-0.416l-3.757-8.533h-17.714l-3.709,8.533
		c-0.093,0.186-0.325,0.416-0.649,0.416h-1.299C448.77,139.652,448.63,139.467,448.77,139.096z M471.677,128.895l-7.93-18.688
		h-0.093l-8.068,18.688H471.677z"/>
	<path fill="#FFFFFF" d="M491.803,135.34l0.417-0.557c0.325-0.371,0.649-0.51,1.021-0.186c0.464,0.418,3.896,3.57,8.579,3.57
		c4.22,0,7.79-2.828,7.79-6.213c0-4.127-3.385-5.982-8.996-7.883c-5.379-1.902-8.949-3.803-8.949-9.135
		c0-3.479,2.782-8.209,10.016-8.209c4.591,0,7.976,2.365,7.976,2.365c0.186,0.139,0.511,0.465,0.186,0.975
		c-0.139,0.186-0.277,0.416-0.37,0.602c-0.278,0.371-0.557,0.512-1.021,0.232c-0.14-0.092-3.246-2.18-6.816-2.18
		c-5.704,0-7.837,3.525-7.837,6.168c0,3.941,3.014,5.656,7.697,7.188c6.354,2.18,10.388,4.404,10.388,9.785
		c0,4.637-4.776,8.254-10.109,8.254c-5.519,0-9.228-3.246-9.831-3.803C491.664,136.082,491.432,135.85,491.803,135.34z"/>
	<path fill="#FFFFFF" d="M533.397,106.729c4.73,0,8.255,1.578,11.269,4.312c0.232,0.232,0.278,0.604,0.047,0.836l-0.742,0.787
		c-0.278,0.279-0.51,0.232-0.788-0.045c-2.644-2.365-5.982-3.803-9.785-3.803c-8.114,0-14.468,6.631-14.468,14.652
		c0,7.977,6.354,14.561,14.468,14.561c3.988,0,7.003-1.576,9.785-3.895c0.278-0.232,0.556-0.232,0.741-0.094l0.789,0.789
		c0.231,0.186,0.231,0.557,0,0.789c-3.153,3.061-7.188,4.498-11.315,4.498c-9.273,0-16.786-7.328-16.786-16.648
		C516.611,114.195,524.124,106.729,533.397,106.729z"/>
	<path fill="#FFFFFF" d="M552.225,107.795c0-0.324,0.278-0.602,0.604-0.602h1.02c0.325,0,0.604,0.277,0.604,0.602v31.256
		c0,0.371-0.325,0.602-0.649,0.602h-0.974c-0.325,0-0.604-0.277-0.604-0.602V107.795z"/>
	<path fill="#FFFFFF" d="M564.281,107.795c0-0.324,0.278-0.602,0.604-0.602h18.595c0.324,0,0.603,0.277,0.603,0.602v0.789
		c0,0.324-0.278,0.604-0.603,0.604h-16.972v12.797h14.699c0.325,0,0.603,0.279,0.603,0.604v0.789c0,0.324-0.277,0.602-0.603,0.602
		h-14.699v13.727h16.972c0.324,0,0.603,0.279,0.603,0.604v0.742c0,0.324-0.278,0.602-0.603,0.602h-18.595
		c-0.325,0-0.604-0.277-0.604-0.602V107.795z"/>
	<path fill="#FFFFFF" d="M592.012,107.332c0-0.371,0.325-0.604,0.696-0.604h0.788l22.258,28.982c0.047,0,0.047,0,0.047,0v-27.916
		c0-0.324,0.278-0.602,0.603-0.602h0.928c0.324,0,0.603,0.277,0.603,0.602v31.719c0,0.418-0.371,0.604-0.742,0.604h-0.603
		c-0.046,0-0.417-0.141-22.443-29.262h-0.047v28.195c0,0.324-0.278,0.602-0.603,0.602h-0.881c-0.325,0-0.604-0.277-0.604-0.602
		V107.332z"/>
	<path fill="#FFFFFF" d="M642.232,106.729c4.73,0,8.255,1.578,11.269,4.312c0.232,0.232,0.278,0.604,0.047,0.836l-0.742,0.787
		c-0.278,0.279-0.51,0.232-0.788-0.045c-2.644-2.365-5.982-3.803-9.785-3.803c-8.114,0-14.468,6.631-14.468,14.652
		c0,7.977,6.354,14.561,14.468,14.561c3.988,0,7.003-1.576,9.785-3.895c0.278-0.232,0.556-0.232,0.741-0.094l0.789,0.789
		c0.231,0.186,0.231,0.557,0,0.789c-3.153,3.061-7.188,4.498-11.315,4.498c-9.273,0-16.786-7.328-16.786-16.648
		C625.446,114.195,632.959,106.729,642.232,106.729z"/>
	<path fill="#FFFFFF" d="M661.06,107.795c0-0.324,0.278-0.602,0.604-0.602h18.595c0.324,0,0.603,0.277,0.603,0.602v0.789
		c0,0.324-0.278,0.604-0.603,0.604h-16.972v12.797h14.699c0.325,0,0.603,0.279,0.603,0.604v0.789c0,0.324-0.277,0.602-0.603,0.602
		h-14.699v13.727h16.972c0.324,0,0.603,0.279,0.603,0.604v0.742c0,0.324-0.278,0.602-0.603,0.602h-18.595
		c-0.325,0-0.604-0.277-0.604-0.602V107.795z"/>
</g>
</svg>
