<?xml version="1.0" encoding="utf-8"?>
<!-- Generator: Adobe Illustrator 18.1.1, SVG Export Plug-In . SVG Version: 6.00 Build 0)  -->
<!DOCTYPE svg PUBLIC "-//W3C//DTD SVG 1.1//EN" "http://www.w3.org/Graphics/SVG/1.1/DTD/svg11.dtd">
<svg version="1.1" id="Layer_1" xmlns="http://www.w3.org/2000/svg" xmlns:xlink="http://www.w3.org/1999/xlink" x="0px" y="0px"
	 viewBox="488 281.7 120.3 120.3" enable-background="new 488 281.7 120.3 120.3" xml:space="preserve">
<g>
	<path fill="#847C78" d="M590.5,299.3c-11.3-11.3-26.4-17.6-42.4-17.6s-31.1,6.2-42.4,17.6c-11.3,11.3-17.6,26.4-17.6,42.4
		s6.2,31.1,17.6,42.4c11.3,11.3,26.4,17.6,42.4,17.6s31.1-6.2,42.4-17.6c11.3-11.3,17.6-26.4,17.6-42.4S601.8,310.6,590.5,299.3z
		 M587.6,381.3c-10.6,10.6-24.6,16.4-39.6,16.4s-29-5.8-39.6-16.4S492,356.7,492,341.7s5.8-29,16.4-39.6s24.6-16.4,39.6-16.4
		s29,5.8,39.6,16.4s16.4,24.6,16.4,39.6S598.2,370.8,587.6,381.3z"/>
	<path fill="#847C78" d="M554.5,335.1c4.4-2.5,7.6-6.5,7.1-11.9c-0.4-5-4.3-8.5-9.5-8.5c-6.4,0-11.1,4.4-12.9,12
		c-1,4.6-8.5,42.1-8.9,43.7l3.9,0.8c0-0.2,1.5-7.3,3.2-15.9c6.1,4.2,12.6,4.8,17.9,1.5c5.1-3.2,7.6-9.3,6.1-14.5
		C561.1,340.5,559.4,337,554.5,335.1z M553.3,353.4c-4.3,2.7-9.6,1.8-14.9-2.5c2.1-10.3,4.3-21.1,4.8-23.4c0.9-4.1,3.2-8.9,9-8.9
		c3.7,0,5.3,2.6,5.5,4.9c0.4,4.1-3,8.8-11.3,10.3l0.3,4c6.1,0,10,2,11.1,5.6C558.8,346.9,556.9,351.2,553.3,353.4z"/>
</g>
</svg>
