<?xml version="1.0" encoding="utf-8"?>
<!-- Generator: Adobe Illustrator 18.1.1, SVG Export Plug-In . SVG Version: 6.00 Build 0)  -->
<!DOCTYPE svg PUBLIC "-//W3C//DTD SVG 1.1//EN" "http://www.w3.org/Graphics/SVG/1.1/DTD/svg11.dtd">
<svg version="1.1" id="Layer_1" xmlns="http://www.w3.org/2000/svg" xmlns:xlink="http://www.w3.org/1999/xlink" x="0px" y="0px"
	 viewBox="0 0 60 60" enable-background="new 0 0 60 60" xml:space="preserve">
<g>
	<path fill="#FF5C60" d="M48,28H32V12c0-1.1-0.9-2-2-2s-2,0.9-2,2v16H12c-1.1,0-2,0.9-2,2s0.9,2,2,2h16v16c0,1.1,0.9,2,2,2
		s2-0.9,2-2V32h16c1.1,0,2-0.9,2-2S49.1,28,48,28z"/>
	<path fill="#FF5C60" d="M30,0C13.5,0,0,13.5,0,30s13.5,30,30,30s30-13.5,30-30S46.5,0,30,0z M30,56C15.7,56,4,44.3,4,30
		C4,15.7,15.7,4,30,4c14.3,0,26,11.7,26,26C56,44.3,44.3,56,30,56z"/>
</g>
</svg>
