<?xml version="1.0" encoding="utf-8"?>
<!-- Generator: Adobe Illustrator 18.1.1, SVG Export Plug-In . SVG Version: 6.00 Build 0)  -->
<!DOCTYPE svg PUBLIC "-//W3C//DTD SVG 1.1//EN" "http://www.w3.org/Graphics/SVG/1.1/DTD/svg11.dtd">
<svg version="1.1" id="Layer_1" xmlns="http://www.w3.org/2000/svg" xmlns:xlink="http://www.w3.org/1999/xlink" x="0px" y="0px"
	 viewBox="89.8 150.8 73 73" enable-background="new 89.8 150.8 73 73" xml:space="preserve">
<path fill="#837C78" d="M161.6,219.1l-24.8-24.8c8.6-10.4,7.9-25.8-1.7-35.3c-5-5-11.6-7.7-18.6-7.7c-7,0-13.6,2.7-18.6,7.7
	c-5,5-7.7,11.6-7.7,18.6c0,7,2.7,13.6,7.7,18.6c5,5,11.6,7.7,18.6,7.7c6.1,0,12.1-2.1,16.8-6l24.8,24.8c0.5,0.5,1.1,0.7,1.7,0.7
	c0.7,0,1.3-0.3,1.7-0.7s0.7-1.1,0.7-1.7C162.3,220.2,162,219.6,161.6,219.1z M131.7,192.7c-4,4-9.4,6.3-15.1,6.3
	c-5.7,0-11.1-2.2-15.1-6.3c-4-4-6.3-9.4-6.3-15.1c0-5.7,2.2-11.1,6.3-15.1c4-4,9.4-6.3,15.1-6.3c5.7,0,11.1,2.2,15.1,6.3
	C140,170.8,140,184.4,131.7,192.7z"/>
</svg>
