<?xml version="1.0" encoding="utf-8"?>
<!-- Generator: Adobe Illustrator 18.1.1, SVG Export Plug-In . SVG Version: 6.00 Build 0)  -->
<!DOCTYPE svg PUBLIC "-//W3C//DTD SVG 1.1//EN" "http://www.w3.org/Graphics/SVG/1.1/DTD/svg11.dtd">
<svg version="1.1" id="Layer_1" xmlns="http://www.w3.org/2000/svg" xmlns:xlink="http://www.w3.org/1999/xlink" x="0px" y="0px"
	 viewBox="488.2 282.8 72 72" enable-background="new 488.2 282.8 72 72" xml:space="preserve">
<g>
	<path fill="#847C78" d="M520.9,305.9c-1,1.3-1,3.3-1,4.8v3.1h-3.1v4.6h3.1v15.8h5.9v-15.8h4.6l0.3-4.6h-5v-3.6
		c0.2-1.3,1.3-1.8,2.5-1.8s2.5,0.3,2.5,0.3l0.8-4.6c0,0-1.7-0.5-5.6-0.5C523.4,303.6,522.1,304.6,520.9,305.9z"/>
	<path fill="#847C78" d="M524.2,282.8c-19.8,0-36,16.2-36,36s16.2,36,36,36s36-16.2,36-36S544,282.8,524.2,282.8z M524.2,352.3
		c-18.5,0-33.5-15-33.5-33.5s15-33.5,33.5-33.5s33.5,15,33.5,33.5S542.7,352.3,524.2,352.3z"/>
</g>
</svg>
