<?xml version="1.0" encoding="utf-8"?>
<!-- Generator: Adobe Illustrator 18.1.1, SVG Export Plug-In . SVG Version: 6.00 Build 0)  -->
<!DOCTYPE svg PUBLIC "-//W3C//DTD SVG 1.1//EN" "http://www.w3.org/Graphics/SVG/1.1/DTD/svg11.dtd">
<svg version="1.1" id="Layer_1" xmlns="http://www.w3.org/2000/svg" xmlns:xlink="http://www.w3.org/1999/xlink" x="0px" y="0px"
	 viewBox="24 0 72 72" enable-background="new 24 0 72 72" xml:space="preserve">
<g>
	<path fill="#847C78" d="M71.8,18H48.2c-3.4,0-6.2,2.8-6.2,6.2v23.6c0,3.4,2.8,6.2,6.2,6.2h23.6c3.4,0,6.2-2.8,6.2-6.2V24.2
		C78,20.8,75.1,18,71.8,18z M74.3,47.9c0,1.4-1.3,2.8-2.8,2.8H47.9c-1.4,0-2.8-1.3-2.8-2.8V33.7h5.9c-0.2,0.8-0.4,1.7-0.4,2.3
		c0.4,4.9,4.3,8.8,9.2,8.8s8.8-4,8.8-8.8c0-0.8-0.2-1.7-0.4-2.3h5.9V47.9z M54.5,35.8c0-3.2,2.3-5.5,5.5-5.5c3.1,0,5.5,2.3,5.5,5.5
		s-2.6,5.5-5.5,5.5S54.5,39,54.5,35.8z M74.7,30.2h-7.8c-1.7-2-4-3.1-6.7-3.1c-2.9,0-5.2,1.1-6.8,3.1h-7.8v-5.9
		c0-1.4,1.3-2.8,2.8-2.8h23.6c1.4,0,2.8,1.3,2.8,2.8V30.2z"/>
	<path fill="#847C78" d="M60,0C40.2,0,24,16.2,24,36s16.2,36,36,36s36-16.2,36-36C96,16.2,79.8,0,60,0z M60,69.5
		c-18.5,0-33.5-15-33.5-33.5S41.5,2.5,60,2.5s33.5,15,33.5,33.5S78.5,69.5,60,69.5z"/>
</g>
</svg>
