<?xml version="1.0" encoding="utf-8"?>
<!-- Generator: Adobe Illustrator 18.1.1, SVG Export Plug-In . SVG Version: 6.00 Build 0)  -->
<!DOCTYPE svg PUBLIC "-//W3C//DTD SVG 1.1//EN" "http://www.w3.org/Graphics/SVG/1.1/DTD/svg11.dtd">
<svg version="1.1" id="Layer_1" xmlns="http://www.w3.org/2000/svg" xmlns:xlink="http://www.w3.org/1999/xlink" x="0px" y="0px"
	 viewBox="601.2 283.2 72 72" enable-background="new 601.2 283.2 72 72" xml:space="preserve">
<g>
	<path fill="#847C78" d="M653.7,307.3c-1.3,0.8-2.8,1.3-4.3,1.6c-1.2-1.3-3-2.1-5-2.1c-3.6,0-6.8,3-6.8,6.8c0,0.5,0,1,0.2,1.5
		c-5.6-0.3-10.6-3-13.9-7.1c-0.7,1-1,2.1-1,3.3c0,2.3,1.2,4.5,3,5.6c-1.2,0-2.1-0.3-3-0.8c0,0,0,0,0,0.2c0,3.3,2.3,5.9,5.4,6.6
		c-0.5,0.2-1.2,0.2-1.8,0.2c-0.5,0-0.8,0-1.3-0.2c0.8,2.6,3.3,4.6,6.3,4.6c-2.3,1.8-5.1,2.8-8.4,2.8c-0.5,0-1.2,0-1.6-0.2
		c3,2,6.4,3,10.2,3c12.4,0,19.2-10.2,19.2-19.2c0-0.3,0-0.7,0-0.8c1.3-1,2.5-2.1,3.3-3.5c-1.2,0.5-2.5,0.8-3.8,1
		C652.1,310.3,653.2,309,653.7,307.3z"/>
	<path fill="#847C78" d="M637.2,283.2c-19.8,0-36,16.2-36,36s16.2,36,36,36s36-16.2,36-36C673.2,299.4,657,283.2,637.2,283.2z
		 M637.2,352.7c-18.5,0-33.5-15-33.5-33.5s15-33.5,33.5-33.5s33.5,15,33.5,33.5S655.7,352.7,637.2,352.7z"/>
</g>
</svg>
