<?xml version="1.0" encoding="utf-8"?>
<!-- Generator: Adobe Illustrator 16.0.0, SVG Export Plug-In . SVG Version: 6.00 Build 0)  -->
<!DOCTYPE svg PUBLIC "-//W3C//DTD SVG 1.1//EN" "http://www.w3.org/Graphics/SVG/1.1/DTD/svg11.dtd">
<svg version="1.1" id="Layer_1" xmlns="http://www.w3.org/2000/svg" xmlns:xlink="http://www.w3.org/1999/xlink" x="0px" y="0px"
	 width="1000px" height="1000px" viewBox="0 0 1000 1000" enable-background="new 0 0 1000 1000" xml:space="preserve">
<g>
	<path fill="#86C6BD" d="M363.341,459.162l39.394,39.391l-39.346,39.323l-39.386-39.392L363.341,459.162z M437.15,756.794
		l-177.711,177.68c22.954,12.673,47.017,23.581,72.026,32.562l157.963-157.948L437.15,756.794z M300.947,620.638L111.539,810.062
		c15.454,19.229,32.317,37.292,50.438,54.038l191.271-191.2L300.947,620.638z M363.389,683.024L172.667,873.707
		c22.878,19.935,47.594,37.827,73.865,53.391l180.462-180.444L363.389,683.024z M489.428,536.742l-33.064-33.086
		c-2.799-2.791-2.799-7.342,0-10.133l33.064-33.082l-63.676-63.674l-52.269,52.261l44.455,44.455
		c1.352,1.337,2.116,3.176,2.116,5.07c0,1.902-0.764,3.727-2.116,5.07l-44.416,44.393l52.308,52.31L489.428,536.742z
		 M635.805,334.355l-52.263,52.277l52.263,52.255l52.277-52.285L635.805,334.355z M572.143,746.67l180.464,180.428
		c26.271-15.563,51.001-33.456,73.879-53.423l-190.714-190.65L572.143,746.67z M645.929,672.9l191.249,191.184
		c18.096-16.729,34.981-34.793,50.451-54.055l-189.47-189.392L645.929,672.9z M346.588,972.193
		c48.206,15.564,99.61,23.96,152.997,23.96c53.361,0,104.758-8.396,152.964-23.96l-152.98-152.981L346.588,972.193z
		 M698.223,376.459l189.361-189.392c-15.486-19.244-32.343-37.301-50.455-54.03L645.945,324.216L698.223,376.459z M635.805,314.074
		l190.634-190.642c-22.892-19.953-47.638-37.861-73.925-53.41L572.112,250.398L635.805,314.074z M561.972,240.255L739.62,62.641
		c-22.955-12.656-47.012-23.577-72.008-32.531L509.709,187.988L561.972,240.255z M896.465,198.465l-188.102,188.12l106.833,106.881
		c2.785,2.801,2.785,7.335-0.016,10.141L708.317,610.48l188.196,188.185c63.159-83.425,100.64-187.365,100.64-300.056
		C997.153,385.87,959.656,281.89,896.465,198.465z M652.47,24.953C604.314,9.403,552.916,1,499.585,1
		c-53.362,0-104.75,8.403-152.924,23.953l152.907,152.9L652.47,24.953z M183.957,503.599c-2.815-2.798-2.815-7.332,0-10.133
		L290.79,386.585l-188.111-188.12C39.498,281.898,2,385.886,2,498.609C2,611.3,39.482,715.24,102.64,798.665L290.798,610.48
		L183.957,503.599z M427.018,250.398L246.619,70.013c-26.279,15.549-51.013,33.451-73.904,53.418l190.626,190.642L427.018,250.398z
		 M353.208,324.216L162.022,133.022c-18.111,16.744-34.981,34.809-50.451,54.045l189.353,189.392L353.208,324.216z M489.428,187.988
		l-157.9-157.887c-24.982,8.962-49.054,19.883-72.001,32.54l177.632,177.615L489.428,187.988z M509.709,809.088l157.965,157.948
		c24.999-8.966,49.068-19.89,72.041-32.562l-177.712-177.68L509.709,809.088z M489.428,684.205l-63.598-63.597L373.522,672.9
		l63.628,63.612L489.428,684.205z M415.689,610.466l-52.3-52.34l-52.316,52.354l52.308,52.279L415.689,610.466z M199.16,498.536
		l101.771,101.818l52.326-52.339l-44.465-44.462c-1.335-1.329-2.091-3.168-2.091-5.07c0-1.894,0.756-3.727,2.091-5.071
		l44.416-44.391l-52.292-52.287L199.16,498.536z M551.876,746.653l-52.308-52.31l-52.292,52.31l52.292,52.31L551.876,746.653z
		 M799.995,498.536L698.223,396.734l-52.277,52.287l44.383,44.391c1.339,1.344,2.108,3.177,2.108,5.071
		c0,1.902-0.77,3.741-2.108,5.07l-44.461,44.462l52.292,52.339L799.995,498.536z M311.057,386.602l52.284,52.285l52.271-52.255
		l-52.271-52.277L311.057,386.602z M688.034,610.48l-52.308-52.354l-52.262,52.324l52.308,52.31L688.034,610.48z M625.631,672.9
		l-52.308-52.292l-63.614,63.597l52.293,52.308L625.631,672.9z M675.126,498.483l-39.321-39.321l-39.418,39.391l39.34,39.323
		L675.126,498.483z M563.181,610.466l-63.613-63.598l-63.604,63.598l63.604,63.611L563.181,610.466z M625.584,548.016l-44.4-44.393
		c-1.337-1.344-2.093-3.168-2.093-5.07c0-1.894,0.756-3.733,2.093-5.07l44.479-44.455l-52.262-52.261l-63.692,63.669l33.081,33.079
		c1.337,1.344,2.108,3.168,2.108,5.079c0,1.902-0.771,3.719-2.108,5.062l-33.081,33.086l63.614,63.583L625.584,548.016z
		 M499.568,526.585l28.018-27.992l-28.018-28.018l-28,28.018L499.568,526.585z M499.568,322.934l-63.667,63.698l63.667,63.662
		l63.707-63.662L499.568,322.934z M373.483,324.216l52.269,52.275l63.676-63.674l-52.269-52.279L373.483,324.216z M447.293,250.398
		l52.275,52.277l52.263-52.277l-52.263-52.277L447.293,250.398z M509.709,312.817l63.692,63.674l52.262-52.275l-63.692-63.677
		L509.709,312.817z"/>
</g>
</svg>
