<?xml version="1.0" encoding="utf-8"?>
<!-- Generator: Adobe Illustrator 16.0.0, SVG Export Plug-In . SVG Version: 6.00 Build 0)  -->
<!DOCTYPE svg PUBLIC "-//W3C//DTD SVG 1.1//EN" "http://www.w3.org/Graphics/SVG/1.1/DTD/svg11.dtd">
<svg version="1.1" id="Layer_1" xmlns="http://www.w3.org/2000/svg" xmlns:xlink="http://www.w3.org/1999/xlink" x="0px" y="0px"
	 width="277.916px" height="29.332px" viewBox="0 0 277.916 29.332" enable-background="new 0 0 277.916 29.332"
	 xml:space="preserve">
<g>
	<path fill="#FFFFFF" d="M20.154,20.927c0,4.87-3.766,8.405-8.954,8.405c-3.393,0-6.147-1.197-8.656-3.769l-0.93,3.64H0v-9.5h1.519
		l0.016,0.037c2.302,5.228,5.627,7.879,9.881,7.879c3.414,0,5.373-2.002,5.373-5.49c0-3.916-2.358-4.945-7.366-6.219
		c-4.914-1.24-9.326-2.783-9.326-7.975c0-4.646,3.595-7.892,8.739-7.892c2.835,0,5.433,1.123,7.327,3.165l0.844-3.037h1.612v8.982
		h-1.524l-0.015-0.04c-1.667-4.771-4.672-7.397-8.459-7.397c-3.134,0-5.157,2.07-5.157,5.273c0,3.91,2.572,4.878,6.809,6.006
		l0.286,0.077C15.707,14.451,20.154,15.641,20.154,20.927z M26.297,10.232h1.448L27.8,9.844c0.852-6.086,1.028-7.354,3.808-7.354
		h4.984V26.8h-4.619v1.846h12.946V26.8h-4.617V2.49h4.983c2.778,0,2.955,1.266,3.806,7.351l0.055,0.392h1.45V0.646H26.297V10.232z
		 M58.342,2.49h4.444V26.8h-4.444v1.846h12.598V26.8h-4.443V2.49h4.443V0.646H58.342V2.49z M78.688,10.232h1.448l0.056-0.392
		c0.851-6.085,1.028-7.351,3.805-7.351h4.984V26.8h-4.614v1.846h12.94V26.8h-4.615V2.49h4.985c2.779,0,2.956,1.268,3.805,7.359
		l0.054,0.383h1.451V0.646H78.688V10.232z M129.585,17.861c-0.879,5.926-4.196,9.326-9.101,9.326c-5.889,0-9.547-4.89-9.547-12.758
		c0-7.486,3.578-12.324,9.114-12.324c4.721,0,7.607,2.572,9.362,8.341l0.013,0.044h1.571V0.132h-1.832l-0.843,3.286
		C126.308,1.15,123.555,0,120.139,0c-7.508,0-13.169,6.315-13.169,14.689c0,4.295,1.27,7.975,3.67,10.638
		c2.329,2.583,5.625,4.005,9.283,4.005c6.606,0,10.769-4.067,11.718-11.453l0.009-0.069h-2.059L129.585,17.861z M155.784,2.49h4.015
		v10.805h-14.421V2.49h4.012V0.646h-12.167V2.49h4.441V26.8h-4.441v1.846h12.167V26.8h-4.012V15.051h14.421V26.8h-4.015v1.846
		h12.167V26.8h-4.442V2.49h4.442V0.646h-12.167V2.49z M190.825,2.49h4.442V26.8h-4.442v1.846h13.069V26.8h-4.916V15.104h4.77
		c1.962,0,2.268,0.515,2.732,4.591l0.007,0.055h1.451V8.85h-1.449l-0.009,0.053c-0.551,3.928-0.807,4.334-2.732,4.334h-4.77V2.49
		h10.447c2.158,0,2.822,0.805,3.725,6.83l0.007,0.053h1.779V0.646h-24.111V2.49z M220.062,2.49h4.445V26.8h-4.445v1.846h12.599V26.8
		h-4.443V2.49h4.443V0.646h-12.599V2.49z M254.136,14.045l7.843-11.555h3.141V0.646h-10.277V2.49h4.166l-6.525,9.934l-6.296-9.934
		h3.618V0.646h-11.393V2.49h3.726l7.961,12.111L241.495,26.8h-3.428v1.846h10.187V26.8h-3.783l7.277-10.58l6.488,10.58h-3.867v1.846
		h11.309V26.8h-3.396L254.136,14.045z M277.916,1.199V0.809h-1.627l-1.084,3.149h-0.04l-1.031-3.149h-1.681v0.391h0.582v3.303
		h-0.582v0.404h1.521V4.502h-0.488V1.365h0.132l1.203,3.541h0.463l1.242-3.541h0.12v3.137h-0.477v0.404h1.746V4.502h-0.595V1.199
		H277.916z M268.221,2.328h0.305c0.225-0.963,0.278-1.144,0.754-1.144h0.436v3.317h-0.754v0.404h2.184V4.502h-0.742V1.185h0.438
		c0.464,0,0.542,0.195,0.741,1.144h0.304v-1.52h-3.664V2.328z"/>
</g>
</svg>
