<svg xmlns="http://www.w3.org/2000/svg" xmlns:xlink="http://www.w3.org/1999/xlink" version="1.1" id="Layer_1" x="0" y="0" viewBox="0 0 217 36" enable-background="new 0 0 217 36" xml:space="preserve"><path fill="#6A615F" d="M14.88 19.94c0 3.18-2.46 5.5-5.85 5.5 -2.22 0-4.02-0.78-5.66-2.46l-0.61 2.38H1.7v-6.21h0.99l0.01 0.02c1.51 3.42 3.68 5.15 6.46 5.15 2.23 0 3.51-1.31 3.51-3.59 0-2.56-1.54-3.23-4.82-4.07 -3.21-0.81-6.1-1.82-6.1-5.21 0-3.04 2.35-5.16 5.71-5.16 1.85 0 3.55 0.73 4.79 2.07l0.55-1.99h1.05v5.87H12.88l-0.01-0.03C11.78 9.09 9.82 7.38 7.34 7.38c-2.05 0-3.37 1.35-3.37 3.45 0 2.56 1.68 3.19 4.45 3.93l0.19 0.05C11.97 15.7 14.88 16.48 14.88 19.94zM18.9 12.94h0.95l0.04-0.25c0.56-3.98 0.67-4.81 2.49-4.81h3.26v15.9h-3.02v1.21h8.47v-1.21h-3.02V7.88h3.26c1.82 0 1.93 0.83 2.49 4.81l0.04 0.26h0.95V6.68H18.9V12.94zM39.85 7.88h2.91v15.9H39.85v1.21h8.24v-1.21h-2.9V7.88h2.91V6.68H39.85V7.88zM53.15 12.94h0.95l0.04-0.26c0.56-3.98 0.67-4.81 2.49-4.81h3.26v15.9h-3.02v1.21h8.46v-1.21h-3.02V7.88h3.26c1.82 0 1.93 0.83 2.49 4.81l0.04 0.25h0.95V6.68H53.15V12.94zM86.43 17.93c-0.57 3.87-2.74 6.1-5.95 6.1 -3.85 0-6.24-3.2-6.24-8.34 0-4.89 2.34-8.06 5.96-8.06 3.09 0 4.97 1.68 6.12 5.45l0.01 0.03h1.03V6.34h-1.2l-0.55 2.15c-1.32-1.48-3.12-2.23-5.35-2.23 -4.91 0-8.61 4.13-8.61 9.6 0 2.81 0.83 5.21 2.4 6.96 1.52 1.69 3.68 2.62 6.07 2.62 4.32 0 7.04-2.66 7.66-7.49l0.01-0.04h-1.35L86.43 17.93zM103.56 7.88h2.63v7.06h-9.43V7.88h2.62V6.68h-7.96v1.21h2.9v15.9h-2.9v1.21h7.96v-1.21h-2.62v-7.68h9.43v7.68h-2.62v1.21h7.96v-1.21h-2.9V7.88h2.91V6.68h-7.96V7.88zM123.86 7.88h2.91v15.9h-2.9v1.21h8.55v-1.21h-3.21V16.13h3.12c1.28 0 1.48 0.34 1.79 3l0 0.04h0.95V12.04h-0.95l-0.01 0.04c-0.36 2.57-0.53 2.83-1.79 2.83h-3.12V7.88h6.83c1.41 0 1.85 0.53 2.44 4.47l0 0.03h1.16V6.68H123.86V7.88zM142.98 7.88h2.91v15.9h-2.91v1.21h8.24v-1.21h-2.9V7.88h2.91V6.68h-8.24V7.88zM165.26 15.44l5.13-7.55h2.05V6.68h-6.72v1.21h2.72l-4.27 6.5 -4.12-6.49h2.37V6.68h-7.45v1.21h2.44l5.21 7.92 -5.62 7.98h-2.24v1.21h6.66v-1.21h-2.47l4.76-6.92 4.24 6.92h-2.53v1.21h7.39v-1.21h-2.22L165.26 15.44zM180.81 7.04V6.78h-1.06l-0.71 2.06h-0.03l-0.67-2.06h-1.1v0.26h0.38v2.16h-0.38v0.27h1V9.2h-0.32v-2.05h0.09l0.79 2.32h0.3l0.81-2.31h0.08v2.05h-0.31v0.27h1.14V9.2h-0.39v-2.16H180.81zM174.47 7.78h0.2c0.15-0.63 0.18-0.75 0.49-0.75h0.28v2.17h-0.49v0.27h1.43V9.2h-0.48V7.03h0.29c0.3 0 0.35 0.13 0.49 0.75h0.2V6.78h-2.4V7.78z"/><rect x="202.53" y="15.01" transform="matrix(-0.7071 0.7071 -0.7071 -0.7071 358.2891 -116.7814)" fill="#86C6BD" width="1.61" height="1.61"/><path fill="#86C6BD" d="M205.82 12.19l-2.01 2.01 1.38 1.38c0.13 0.13 0.13 0.34 0 0.48l-1.38 1.38 2.01 2.01 3.63-3.63L205.82 12.19zM210.16 16.05l-3.87 3.87 5.77 5.77c2.32-2.62 3.74-6.06 3.74-9.84 0-3.79-1.42-7.25-3.76-9.87l-5.74 5.74 3.87 3.87C210.29 15.71 210.29 15.92 210.16 16.05z"/><rect x="201.96" y="10.42" transform="matrix(-0.7071 0.7071 -0.7071 -0.7071 355.5214 -123.732)" fill="#86C6BD" width="2.85" height="2.69"/><path fill="#86C6BD" d="M209.56 27.94c0.74-0.52 1.42-1.11 2.05-1.76l-5.78-5.78 -1.9 1.9L209.56 27.94zM211.57 5.48c-0.63-0.64-1.32-1.23-2.05-1.75l-5.6 5.61 1.9 1.9L211.57 5.48zM199.05 14.2l1.38 1.38c0.13 0.13 0.13 0.34 0 0.48l-1.38 1.38 1.9 1.9 1.9-1.9 -1.38-1.38c-0.13-0.13-0.13-0.34 0-0.48l1.38-1.38 -1.9-1.9L199.05 14.2z"/><rect x="201.96" y="18.52" transform="matrix(-0.7071 -0.7071 0.7071 -0.7071 333.1584 177.7212)" fill="#86C6BD" width="2.85" height="2.69"/><rect x="197.77" y="15.01" transform="matrix(-0.7071 0.7071 -0.7071 -0.7071 350.1718 -113.4197)" fill="#86C6BD" width="1.61" height="1.61"/><path fill="#86C6BD" d="M206.33 29.68c0.94-0.36 1.83-0.82 2.67-1.36l-5.55-5.55 -2.01 2.01L206.33 29.68zM208.95 3.34c-0.84-0.54-1.73-0.99-2.67-1.35l-4.85 4.85 2.01 2.01L208.95 3.34zM196.72 16.05c-0.13-0.13-0.13-0.34 0-0.48l1.38-1.38 -2.01-2.01 -3.63 3.63 3.63 3.63 2.01-2.01L196.72 16.05z"/><rect x="197.18" y="10.34" transform="matrix(-0.7071 0.7071 -0.7071 -0.7071 347.2126 -120.2927)" fill="#86C6BD" width="2.69" height="2.85"/><rect x="197.18" y="18.44" transform="matrix(-0.7071 -0.7071 0.7071 -0.7071 324.849 174.282)" fill="#86C6BD" width="2.69" height="2.85"/><rect x="199.53" y="7.91" transform="matrix(-0.7071 0.7071 -0.7071 -0.7071 349.6457 -126.1668)" fill="#86C6BD" width="2.85" height="2.85"/><rect x="199.53" y="20.87" transform="matrix(-0.7071 -0.7071 0.7071 -0.7071 327.2863 180.1527)" fill="#86C6BD" width="2.85" height="2.85"/><path fill="#86C6BD" d="M197.99 9.33l-5.6-5.6c-0.74 0.52-1.42 1.11-2.05 1.75l5.76 5.76L197.99 9.33zM196.09 20.39l-5.78 5.79c0.63 0.65 1.31 1.23 2.05 1.76l5.64-5.64L196.09 20.39zM200.95 30.69c1.63 0 3.2-0.27 4.67-0.75l-4.67-4.67 -4.67 4.67C197.75 30.42 199.32 30.69 200.95 30.69zM192.92 28.32c0.84 0.54 1.73 1 2.67 1.36l4.9-4.9 -2.01-2.01L192.92 28.32zM205.58 1.74C204.12 1.26 202.57 1 200.95 1c-1.62 0-3.17 0.26-4.63 0.74l4.63 4.63L205.58 1.74zM191.75 15.58l3.87-3.87 -5.74-5.74c-2.34 2.62-3.76 6.08-3.76 9.87 0 3.78 1.41 7.22 3.74 9.84l5.77-5.77 -3.87-3.87C191.61 15.92 191.61 15.71 191.75 15.58zM198.46 8.86l2.01-2.01 -4.85-4.85c-0.94 0.36-1.83 0.82-2.67 1.35L198.46 8.86z"/><rect x="154.25" y="27.71" fill="none" width="97.89" height="23.09"/><path fill="#86C6BD" d="M154.88 28.09c0.31-0.06 0.81-0.11 1.31-0.11 0.72 0 1.18 0.12 1.53 0.41 0.29 0.22 0.46 0.55 0.46 0.98 0 0.54-0.35 1.01-0.94 1.23v0.02c0.53 0.13 1.15 0.57 1.15 1.4 0 0.48-0.19 0.84-0.47 1.12 -0.39 0.36-1.02 0.52-1.93 0.52 -0.5 0-0.88-0.03-1.12-0.07V28.09zM155.6 30.37h0.65c0.76 0 1.21-0.4 1.21-0.93 0-0.65-0.5-0.91-1.23-0.91 -0.33 0-0.52 0.03-0.64 0.05V30.37zM155.6 33.04c0.14 0.02 0.35 0.03 0.6 0.03 0.74 0 1.43-0.27 1.43-1.08 0-0.76-0.65-1.07-1.44-1.07h-0.6V33.04zM162.66 30.97h-2.17v2.01h2.42v0.6h-3.13v-5.57h3.01v0.6h-2.29v1.76h2.17V30.97zM165.45 28.62h-1.69v-0.61h4.13v0.61h-1.7v4.96h-0.73V28.62zM169.2 31.83l-0.58 1.75h-0.74l1.89-5.57h0.87l1.9 5.57h-0.77l-0.59-1.75H169.2zM171.02 31.27l-0.55-1.6c-0.12-0.36-0.21-0.69-0.29-1.02h-0.02c-0.08 0.33-0.17 0.67-0.28 1.01l-0.55 1.61H171.02z"/></svg>
